<svg xmlns="http://www.w3.org/2000/svg" xmlns:xlink="http://www.w3.org/1999/xlink" width="500" zoomAndPan="magnify" viewBox="0 0 375 374.999991" height="500" preserveAspectRatio="xMidYMid meet" version="1.0"><defs><g/><clipPath id="091b4de08d"><path d="M 59.179688 23.546875 L 229 23.546875 L 229 274 L 59.179688 274 Z M 59.179688 23.546875 " clip-rule="nonzero"/></clipPath><clipPath id="c10242e25f"><path d="M 146 25 L 315.683594 25 L 315.683594 275.773438 L 146 275.773438 Z M 146 25 " clip-rule="nonzero"/></clipPath></defs><rect x="-37.5" width="450" fill="#ffffff" y="-37.499999" height="449.999989" fill-opacity="1"/><rect x="-37.5" width="450" fill="#ffffff" y="-37.499999" height="449.999989" fill-opacity="1"/><rect x="-37.5" width="450" fill="#ffffff" y="-37.499999" height="449.999989" fill-opacity="1"/><g clip-path="url(#091b4de08d)"><path fill="#293041" d="M 59.179688 106.542969 L 59.179688 273.476562 L 147.152344 273.476562 L 228.757812 190.007812 L 143.96875 190.007812 L 143.96875 23.648438 Z M 59.179688 106.542969 " fill-opacity="1" fill-rule="nonzero"/></g><g clip-path="url(#c10242e25f)"><path fill="#205eff" d="M 315.683594 192.785156 L 315.683594 25.839844 L 227.710938 25.839844 L 146.101562 109.308594 L 230.890625 109.308594 L 230.890625 275.667969 Z M 315.683594 192.785156 " fill-opacity="1" fill-rule="nonzero"/></g><g fill="#293041" fill-opacity="1"><g transform="translate(53.319508, 322.112435)"><g><path d="M 18.5625 0.859375 C 26.71875 0.859375 29.507812 -2.84375 30.796875 -6.167969 L 30.796875 0 L 39.703125 0 L 39.703125 -20.117188 L 19.152344 -20.117188 L 19.152344 -13.574219 L 29.507812 -13.574219 C 28.972656 -10.03125 27.09375 -7.351562 21.300781 -7.351562 C 15.773438 -7.351562 13.089844 -10.785156 13.089844 -17.757812 C 13.089844 -25.429688 16.46875 -28.328125 22.105469 -28.328125 C 26.394531 -28.328125 28.757812 -26.289062 29.023438 -24.089844 L 39.753906 -24.089844 C 39.433594 -30.527344 34.765625 -36.535156 21.941406 -36.535156 C 7.671875 -36.535156 1.878906 -28.058594 1.878906 -17.8125 C 1.878906 -7.777344 7.027344 0.859375 18.5625 0.859375 Z M 18.5625 0.859375 "/></g></g></g><g fill="#293041" fill-opacity="1"><g transform="translate(96.024724, 322.112435)"><g><path d="M 21.40625 0.859375 C 36 0.859375 40.933594 -8.585938 40.933594 -17.757812 C 40.933594 -26.773438 36 -36.535156 21.40625 -36.535156 C 6.867188 -36.535156 1.878906 -26.824219 1.878906 -17.757812 C 1.878906 -8.53125 6.867188 0.859375 21.40625 0.859375 Z M 13.089844 -17.757812 C 13.089844 -24.089844 14.484375 -27.789062 21.40625 -27.789062 C 28.382812 -27.789062 29.722656 -24.089844 29.722656 -17.757812 C 29.722656 -11.589844 28.382812 -7.886719 21.40625 -7.886719 C 14.484375 -7.886719 13.089844 -11.589844 13.089844 -17.757812 Z M 13.089844 -17.757812 "/></g></g></g><g fill="#293041" fill-opacity="1"><g transform="translate(138.837239, 322.112435)"><g><path d="M 29.132812 -35.675781 L 22.371094 -14.164062 C 21.78125 -12.394531 21.351562 -10.621094 20.921875 -8.851562 C 20.441406 -10.621094 20.011719 -12.394531 19.421875 -14.164062 L 12.660156 -35.675781 L 1.609375 -35.675781 L 12.824219 0 L 28.703125 0 L 39.914062 -35.675781 Z M 29.132812 -35.675781 "/></g></g></g><g fill="#293041" fill-opacity="1"><g transform="translate(180.362161, 322.112435)"><g><path d="M 30.847656 0 L 41.632812 0 L 29.777344 -35.675781 L 13.199219 -35.675781 L 1.339844 0 L 12.125 0 L 14.164062 -6.117188 L 28.808594 -6.117188 Z M 16.847656 -14.164062 L 21.460938 -28.113281 L 26.128906 -14.164062 Z M 16.847656 -14.164062 "/></g></g></g><g fill="#293041" fill-opacity="1"><g transform="translate(223.335638, 322.112435)"><g><path d="M 2.683594 0 L 27.898438 0 L 27.898438 -8.316406 L 21.246094 -8.316406 L 21.246094 -26.933594 C 21.246094 -31.976562 18.347656 -35.675781 10.890625 -35.675781 L 3.648438 -35.675781 L 3.648438 -27.363281 L 10.515625 -27.363281 L 10.515625 -8.316406 L 2.683594 -8.316406 Z M 2.683594 0 "/></g></g></g><g fill="#293041" fill-opacity="1"><g transform="translate(252.735721, 322.112435)"><g><path d="M 2.683594 0 L 27.898438 0 L 27.898438 -8.316406 L 21.246094 -8.316406 L 21.246094 -26.933594 C 21.246094 -31.976562 18.347656 -35.675781 10.890625 -35.675781 L 3.648438 -35.675781 L 3.648438 -27.363281 L 10.515625 -27.363281 L 10.515625 -8.316406 L 2.683594 -8.316406 Z M 2.683594 0 "/></g></g></g><g fill="#293041" fill-opacity="1"><g transform="translate(282.135803, 322.112435)"><g><path d="M 26.558594 -35.675781 L 21.996094 -24.679688 C 21.136719 -22.640625 20.386719 -20.601562 19.691406 -18.5625 C 19.046875 -20.601562 18.292969 -22.640625 17.488281 -24.679688 L 13.089844 -35.675781 L 1.074219 -35.675781 L 14.433594 -9.765625 L 14.433594 0 L 25.214844 0 L 25.214844 -9.765625 L 38.46875 -35.675781 Z M 26.558594 -35.675781 "/></g></g></g><g fill="#205eff" fill-opacity="1"><g transform="translate(57.095658, 345.106918)"><g><path d="M 4.066406 -2.34375 L 4.066406 -5.480469 L 10.648438 -5.480469 L 10.648438 -7.667969 L 4.066406 -7.667969 L 4.066406 -10.550781 L 11.230469 -10.550781 L 11.230469 -12.875 L 1.121094 -12.875 L 1.121094 0 L 11.289062 0 L 11.289062 -2.34375 Z M 4.066406 -2.34375 "/></g></g></g><g fill="#205eff" fill-opacity="1"><g transform="translate(70.100443, 345.106918)"><g><path d="M 10.765625 -12.875 L 10.765625 -2.089844 C 10.550781 -2.75 10.300781 -3.40625 10.066406 -3.949219 L 6.003906 -12.875 L 1.121094 -12.875 L 1.121094 0 L 3.949219 0 L 3.949219 -10.765625 C 4.144531 -10.105469 4.394531 -9.449219 4.6875 -8.789062 L 8.710938 0 L 13.59375 0 L 13.59375 -12.875 Z M 10.765625 -12.875 "/></g></g></g><g fill="#205eff" fill-opacity="1"><g transform="translate(85.562864, 345.106918)"><g><path d="M 11.171875 0 L 14.132812 0 L 9.601562 -12.875 L 5.113281 -12.875 L 0.582031 0 L 3.542969 0 L 4.472656 -2.632812 L 10.242188 -2.632812 Z M 5.265625 -4.898438 L 7.359375 -10.84375 L 9.449219 -4.898438 Z M 5.265625 -4.898438 "/></g></g></g><g fill="#205eff" fill-opacity="1"><g transform="translate(101.005932, 345.106918)"><g><path d="M 9.507812 -6.640625 C 10.976562 -6.949219 12.160156 -7.804688 12.160156 -9.699219 C 12.160156 -11.441406 11.054688 -12.875 8.304688 -12.875 L 1.121094 -12.875 L 1.121094 0 L 8.171875 0 C 10.921875 0 12.332031 -1.335938 12.332031 -3.503906 C 12.332031 -5.558594 11.113281 -6.390625 9.507812 -6.640625 Z M 7.433594 -10.648438 C 8.65625 -10.648438 9.082031 -10.105469 9.082031 -9.121094 C 9.082031 -8.191406 8.617188 -7.570312 7.339844 -7.570312 L 4.066406 -7.570312 L 4.066406 -10.648438 Z M 7.511719 -2.246094 L 4.066406 -2.246094 L 4.066406 -5.59375 L 7.339844 -5.59375 C 8.75 -5.59375 9.273438 -4.9375 9.273438 -3.910156 C 9.273438 -2.960938 8.828125 -2.246094 7.511719 -2.246094 Z M 7.511719 -2.246094 "/></g></g></g><g fill="#205eff" fill-opacity="1"><g transform="translate(114.862188, 345.106918)"><g><path d="M 4.085938 -2.34375 L 4.085938 -12.875 L 1.121094 -12.875 L 1.121094 0 L 10.105469 0 L 10.105469 -2.34375 Z M 4.085938 -2.34375 "/></g></g></g><g fill="#205eff" fill-opacity="1"><g transform="translate(126.08665, 345.106918)"><g><path d="M 4.066406 -2.34375 L 4.066406 -5.480469 L 10.648438 -5.480469 L 10.648438 -7.667969 L 4.066406 -7.667969 L 4.066406 -10.550781 L 11.230469 -10.550781 L 11.230469 -12.875 L 1.121094 -12.875 L 1.121094 0 L 11.289062 0 L 11.289062 -2.34375 Z M 4.066406 -2.34375 "/></g></g></g><g fill="#205eff" fill-opacity="1"><g transform="translate(139.091436, 345.106918)"><g/></g></g><g fill="#205eff" fill-opacity="1"><g transform="translate(144.7427, 345.106918)"><g><path d="M 4.066406 -2.34375 L 4.066406 -5.480469 L 10.648438 -5.480469 L 10.648438 -7.667969 L 4.066406 -7.667969 L 4.066406 -10.550781 L 11.230469 -10.550781 L 11.230469 -12.875 L 1.121094 -12.875 L 1.121094 0 L 11.289062 0 L 11.289062 -2.34375 Z M 4.066406 -2.34375 "/></g></g></g><g fill="#205eff" fill-opacity="1"><g transform="translate(157.747486, 345.106918)"><g><path d="M 0.871094 -6.503906 C 0.871094 -2.960938 2.652344 0 7.648438 0 L 14.773438 0 L 14.773438 -2.226562 L 11.480469 -2.226562 C 13.300781 -3.019531 14.386719 -4.6875 14.386719 -7.105469 C 14.386719 -10.011719 12.625 -13.203125 7.648438 -13.203125 C 2.652344 -13.203125 0.871094 -10.011719 0.871094 -6.503906 Z M 3.949219 -6.601562 C 3.949219 -9.292969 4.761719 -10.804688 7.648438 -10.804688 C 10.53125 -10.804688 11.347656 -9.292969 11.347656 -6.601562 C 11.347656 -3.949219 10.53125 -2.402344 7.648438 -2.402344 C 4.761719 -2.402344 3.949219 -3.949219 3.949219 -6.601562 Z M 3.949219 -6.601562 "/></g></g></g><g fill="#205eff" fill-opacity="1"><g transform="translate(174.00331, 345.106918)"><g><path d="M 1.066406 -4.820312 C 1.066406 -1.453125 3 0.308594 6.855469 0.308594 C 10.707031 0.308594 12.625 -1.472656 12.625 -4.820312 L 12.625 -12.875 L 9.699219 -12.875 L 9.699219 -5.226562 C 9.699219 -2.730469 8.75 -2.089844 6.855469 -2.089844 C 4.957031 -2.089844 4.007812 -2.730469 4.007812 -5.226562 L 4.007812 -12.875 L 1.066406 -12.875 Z M 1.066406 -4.820312 "/></g></g></g><g fill="#205eff" fill-opacity="1"><g transform="translate(188.4401, 345.106918)"><g><path d="M 8.828125 -10.550781 L 8.828125 -12.875 L 1.121094 -12.875 L 1.121094 -10.550781 L 3.503906 -10.550781 L 3.503906 -2.34375 L 1.121094 -2.34375 L 1.121094 0 L 8.828125 0 L 8.828125 -2.34375 L 6.449219 -2.34375 L 6.449219 -10.550781 Z M 8.828125 -10.550781 "/></g></g></g><g fill="#205eff" fill-opacity="1"><g transform="translate(199.142072, 345.106918)"><g><path d="M 12.0625 -12.875 L 0.640625 -12.875 L 0.640625 -10.550781 L 4.878906 -10.550781 L 4.878906 0 L 7.820312 0 L 7.820312 -10.550781 L 12.0625 -10.550781 Z M 12.0625 -12.875 "/></g></g></g><g fill="#205eff" fill-opacity="1"><g transform="translate(212.591939, 345.106918)"><g><path d="M 9.816406 -12.875 L 7.6875 -8.402344 C 7.359375 -7.6875 7.046875 -6.988281 6.738281 -6.273438 C 6.46875 -6.988281 6.15625 -7.6875 5.847656 -8.402344 L 3.738281 -12.875 L 0.445312 -12.875 L 5.304688 -3.890625 L 5.304688 0 L 8.25 0 L 8.25 -3.890625 L 13.089844 -12.875 Z M 9.816406 -12.875 "/></g></g></g><g fill="#205eff" fill-opacity="1"><g transform="translate(226.854559, 345.106918)"><g/></g></g><g fill="#205eff" fill-opacity="1"><g transform="translate(232.505817, 345.106918)"><g><path d="M 11.171875 -10.550781 L 11.171875 -12.875 L 1.121094 -12.875 L 1.121094 0 L 4.066406 0 L 4.066406 -5.246094 L 10.511719 -5.246094 L 10.511719 -7.433594 L 4.066406 -7.433594 L 4.066406 -10.550781 Z M 11.171875 -10.550781 "/></g></g></g><g fill="#205eff" fill-opacity="1"><g transform="translate(245.239679, 345.106918)"><g><path d="M 7.667969 0.328125 C 12.605469 0.328125 14.445312 -2.886719 14.445312 -6.429688 C 14.445312 -9.914062 12.605469 -13.203125 7.667969 -13.203125 C 2.730469 -13.203125 0.871094 -9.933594 0.871094 -6.429688 C 0.871094 -2.867188 2.730469 0.328125 7.667969 0.328125 Z M 3.949219 -6.429688 C 3.949219 -9.273438 4.839844 -10.804688 7.667969 -10.804688 C 10.496094 -10.804688 11.386719 -9.273438 11.386719 -6.429688 C 11.386719 -3.621094 10.496094 -2.089844 7.667969 -2.089844 C 4.839844 -2.089844 3.949219 -3.621094 3.949219 -6.429688 Z M 3.949219 -6.429688 "/></g></g></g><g fill="#205eff" fill-opacity="1"><g transform="translate(261.301988, 345.106918)"><g><path d="M 11.832031 -3.136719 C 11.832031 -4.996094 10.804688 -5.652344 9.488281 -5.984375 C 11.015625 -6.3125 12.179688 -7.53125 12.179688 -9.351562 C 12.179688 -11.441406 10.765625 -12.875 7.917969 -12.875 L 1.121094 -12.875 L 1.121094 0 L 4.085938 0 L 4.085938 -4.976562 L 6.738281 -4.976562 C 8.015625 -4.976562 8.886719 -4.355469 8.886719 -2.902344 L 8.886719 -2.226562 C 8.886719 -1.160156 8.984375 -0.464844 9.140625 0 L 12.082031 0 C 11.945312 -0.621094 11.832031 -1.199219 11.832031 -2.265625 Z M 7.261719 -7.085938 L 4.085938 -7.085938 L 4.085938 -10.589844 L 7.261719 -10.589844 C 8.539062 -10.589844 9.101562 -10.011719 9.101562 -8.925781 C 9.101562 -7.726562 8.597656 -7.085938 7.261719 -7.085938 Z M 7.261719 -7.085938 "/></g></g></g><g fill="#205eff" fill-opacity="1"><g transform="translate(275.119533, 345.106918)"><g/></g></g><g fill="#205eff" fill-opacity="1"><g transform="translate(280.770803, 345.106918)"><g><path d="M 11.171875 0 L 14.132812 0 L 9.601562 -12.875 L 5.113281 -12.875 L 0.582031 0 L 3.542969 0 L 4.472656 -2.632812 L 10.242188 -2.632812 Z M 5.265625 -4.898438 L 7.359375 -10.84375 L 9.449219 -4.898438 Z M 5.265625 -4.898438 "/></g></g></g><g fill="#205eff" fill-opacity="1"><g transform="translate(296.213868, 345.106918)"><g><path d="M 4.085938 -2.34375 L 4.085938 -12.875 L 1.121094 -12.875 L 1.121094 0 L 10.105469 0 L 10.105469 -2.34375 Z M 4.085938 -2.34375 "/></g></g></g><g fill="#205eff" fill-opacity="1"><g transform="translate(307.438336, 345.106918)"><g><path d="M 4.085938 -2.34375 L 4.085938 -12.875 L 1.121094 -12.875 L 1.121094 0 L 10.105469 0 L 10.105469 -2.34375 Z M 4.085938 -2.34375 "/></g></g></g></svg>