<svg xmlns="http://www.w3.org/2000/svg" xmlns:xlink="http://www.w3.org/1999/xlink" width="500" zoomAndPan="magnify" viewBox="0 0 375 374.999991" height="500" preserveAspectRatio="xMidYMid meet" version="1.0"><defs><g/><clipPath id="46e76d2ec4"><path d="M 108.75 37.5 L 213 37.5 L 213 191 L 108.75 191 Z M 108.75 37.5 " clip-rule="nonzero"/></clipPath><clipPath id="10f9783f2a"><path d="M 162 38 L 266.25 38 L 266.25 192 L 162 192 Z M 162 38 " clip-rule="nonzero"/></clipPath></defs><rect x="-37.5" width="450" fill="#ffffff" y="-37.499999" height="449.999989" fill-opacity="1"/><rect x="-37.5" width="450" fill="#ffffff" y="-37.499999" height="449.999989" fill-opacity="1"/><rect x="-37.5" width="450" fill="#fafafa" y="-37.499999" height="449.999989" fill-opacity="1"/><g clip-path="url(#46e76d2ec4)"><path fill="#293041" d="M 108.75 88.335938 L 108.75 190.597656 L 162.765625 190.597656 L 212.875 139.46875 L 160.8125 139.46875 L 160.8125 37.558594 Z M 108.75 88.335938 " fill-opacity="1" fill-rule="nonzero"/></g><g clip-path="url(#10f9783f2a)"><path fill="#205eff" d="M 266.25 141.167969 L 266.25 38.902344 L 212.230469 38.902344 L 162.121094 90.03125 L 214.1875 90.03125 L 214.1875 191.941406 Z M 266.25 141.167969 " fill-opacity="1" fill-rule="nonzero"/></g><g fill="#293041" fill-opacity="1"><g transform="translate(46.259319, 263.79973)"><g><path d="M 19.539062 0.902344 C 28.125 0.902344 31.058594 -2.992188 32.414062 -6.496094 L 32.414062 0 L 41.789062 0 L 41.789062 -21.175781 L 20.160156 -21.175781 L 20.160156 -14.289062 L 31.058594 -14.289062 C 30.496094 -10.558594 28.519531 -7.738281 22.417969 -7.738281 C 16.601562 -7.738281 13.78125 -11.351562 13.78125 -18.691406 C 13.78125 -26.769531 17.335938 -29.816406 23.265625 -29.816406 C 27.785156 -29.816406 30.269531 -27.671875 30.550781 -25.355469 L 41.847656 -25.355469 C 41.507812 -32.132812 36.59375 -38.457031 23.097656 -38.457031 C 8.074219 -38.457031 1.976562 -29.535156 1.976562 -18.75 C 1.976562 -8.1875 7.398438 0.902344 19.539062 0.902344 Z M 19.539062 0.902344 "/></g></g></g><g fill="#293041" fill-opacity="1"><g transform="translate(91.211562, 263.79973)"><g><path d="M 22.53125 0.902344 C 37.894531 0.902344 43.089844 -9.035156 43.089844 -18.691406 C 43.089844 -28.179688 37.894531 -38.457031 22.53125 -38.457031 C 7.230469 -38.457031 1.976562 -28.238281 1.976562 -18.691406 C 1.976562 -8.980469 7.230469 0.902344 22.53125 0.902344 Z M 13.78125 -18.691406 C 13.78125 -25.355469 15.246094 -29.253906 22.53125 -29.253906 C 29.875 -29.253906 31.285156 -25.355469 31.285156 -18.691406 C 31.285156 -12.199219 29.875 -8.300781 22.53125 -8.300781 C 15.246094 -8.300781 13.78125 -12.199219 13.78125 -18.691406 Z M 13.78125 -18.691406 "/></g></g></g><g fill="#293041" fill-opacity="1"><g transform="translate(136.276749, 263.79973)"><g><path d="M 30.664062 -37.554688 L 23.550781 -14.910156 C 22.929688 -13.046875 22.476562 -11.183594 22.023438 -9.316406 C 21.515625 -11.183594 21.066406 -13.046875 20.441406 -14.910156 L 13.328125 -37.554688 L 1.695312 -37.554688 L 13.496094 0 L 30.214844 0 L 42.015625 -37.554688 Z M 30.664062 -37.554688 "/></g></g></g><g fill="#293041" fill-opacity="1"><g transform="translate(179.986593, 263.79973)"><g><path d="M 32.472656 0 L 43.824219 0 L 31.34375 -37.554688 L 13.890625 -37.554688 L 1.410156 0 L 12.761719 0 L 14.910156 -6.4375 L 30.324219 -6.4375 Z M 17.734375 -14.910156 L 22.589844 -29.59375 L 27.503906 -14.910156 Z M 17.734375 -14.910156 "/></g></g></g><g fill="#293041" fill-opacity="1"><g transform="translate(225.221212, 263.79973)"><g><path d="M 2.824219 0 L 29.367188 0 L 29.367188 -8.753906 L 22.363281 -8.753906 L 22.363281 -28.347656 C 22.363281 -33.65625 19.3125 -37.554688 11.464844 -37.554688 L 3.839844 -37.554688 L 3.839844 -28.800781 L 11.070312 -28.800781 L 11.070312 -8.753906 L 2.824219 -8.753906 Z M 2.824219 0 "/></g></g></g><g fill="#293041" fill-opacity="1"><g transform="translate(256.168242, 263.79973)"><g><path d="M 2.824219 0 L 29.367188 0 L 29.367188 -8.753906 L 22.363281 -8.753906 L 22.363281 -28.347656 C 22.363281 -33.65625 19.3125 -37.554688 11.464844 -37.554688 L 3.839844 -37.554688 L 3.839844 -28.800781 L 11.070312 -28.800781 L 11.070312 -8.753906 L 2.824219 -8.753906 Z M 2.824219 0 "/></g></g></g><g fill="#293041" fill-opacity="1"><g transform="translate(287.115273, 263.79973)"><g><path d="M 27.953125 -37.554688 L 23.152344 -25.976562 C 22.25 -23.832031 21.460938 -21.6875 20.726562 -19.539062 C 20.046875 -21.6875 19.257812 -23.832031 18.410156 -25.976562 L 13.78125 -37.554688 L 1.128906 -37.554688 L 15.191406 -10.277344 L 15.191406 0 L 26.542969 0 L 26.542969 -10.277344 L 40.492188 -37.554688 Z M 27.953125 -37.554688 "/></g></g></g><g fill="#205eff" fill-opacity="1"><g transform="translate(11.885342, 305.13527)"><g><path d="M 5.476562 -3.15625 L 5.476562 -7.378906 L 14.339844 -7.378906 L 14.339844 -10.324219 L 5.476562 -10.324219 L 5.476562 -14.210938 L 15.125 -14.210938 L 15.125 -17.339844 L 1.511719 -17.339844 L 1.511719 0 L 15.203125 0 L 15.203125 -3.15625 Z M 5.476562 -3.15625 "/></g></g></g><g fill="#205eff" fill-opacity="1"><g transform="translate(29.398797, 305.13527)"><g><path d="M 14.496094 -17.339844 L 14.496094 -2.816406 C 14.210938 -3.703125 13.871094 -4.589844 13.558594 -5.320312 L 8.082031 -17.339844 L 1.511719 -17.339844 L 1.511719 0 L 5.320312 0 L 5.320312 -14.496094 C 5.578125 -13.609375 5.917969 -12.722656 6.308594 -11.835938 L 11.734375 0 L 18.304688 0 L 18.304688 -17.339844 Z M 14.496094 -17.339844 "/></g></g></g><g fill="#205eff" fill-opacity="1"><g transform="translate(50.221934, 305.13527)"><g><path d="M 15.046875 0 L 19.035156 0 L 12.933594 -17.339844 L 6.882812 -17.339844 L 0.78125 0 L 4.773438 0 L 6.023438 -3.546875 L 13.792969 -3.546875 Z M 7.09375 -6.597656 L 9.910156 -14.601562 L 12.722656 -6.597656 Z M 7.09375 -6.597656 "/></g></g></g><g fill="#205eff" fill-opacity="1"><g transform="translate(71.019009, 305.13527)"><g><path d="M 12.800781 -8.945312 C 14.785156 -9.359375 16.375 -10.507812 16.375 -13.0625 C 16.375 -15.410156 14.886719 -17.339844 11.1875 -17.339844 L 1.511719 -17.339844 L 1.511719 0 L 11.003906 0 C 14.707031 0 16.609375 -1.800781 16.609375 -4.71875 C 16.609375 -7.484375 14.96875 -8.605469 12.800781 -8.945312 Z M 10.011719 -14.339844 C 11.65625 -14.339844 12.230469 -13.609375 12.230469 -12.28125 C 12.230469 -11.03125 11.601562 -10.195312 9.882812 -10.195312 L 5.476562 -10.195312 L 5.476562 -14.339844 Z M 10.117188 -3.023438 L 5.476562 -3.023438 L 5.476562 -7.535156 L 9.882812 -7.535156 C 11.785156 -7.535156 12.488281 -6.648438 12.488281 -5.265625 C 12.488281 -3.988281 11.890625 -3.023438 10.117188 -3.023438 Z M 10.117188 -3.023438 "/></g></g></g><g fill="#205eff" fill-opacity="1"><g transform="translate(89.679135, 305.13527)"><g><path d="M 5.5 -3.15625 L 5.5 -17.339844 L 1.511719 -17.339844 L 1.511719 0 L 13.609375 0 L 13.609375 -3.15625 Z M 5.5 -3.15625 "/></g></g></g><g fill="#205eff" fill-opacity="1"><g transform="translate(104.795042, 305.13527)"><g><path d="M 5.476562 -3.15625 L 5.476562 -7.378906 L 14.339844 -7.378906 L 14.339844 -10.324219 L 5.476562 -10.324219 L 5.476562 -14.210938 L 15.125 -14.210938 L 15.125 -17.339844 L 1.511719 -17.339844 L 1.511719 0 L 15.203125 0 L 15.203125 -3.15625 Z M 5.476562 -3.15625 "/></g></g></g><g fill="#205eff" fill-opacity="1"><g transform="translate(122.308499, 305.13527)"><g/></g></g><g fill="#205eff" fill-opacity="1"><g transform="translate(129.919017, 305.13527)"><g><path d="M 5.476562 -3.15625 L 5.476562 -7.378906 L 14.339844 -7.378906 L 14.339844 -10.324219 L 5.476562 -10.324219 L 5.476562 -14.210938 L 15.125 -14.210938 L 15.125 -17.339844 L 1.511719 -17.339844 L 1.511719 0 L 15.203125 0 L 15.203125 -3.15625 Z M 5.476562 -3.15625 "/></g></g></g><g fill="#205eff" fill-opacity="1"><g transform="translate(147.432474, 305.13527)"><g><path d="M 1.171875 -8.761719 C 1.171875 -3.988281 3.570312 0 10.300781 0 L 19.894531 0 L 19.894531 -3 L 15.460938 -3 C 17.914062 -4.066406 19.375 -6.308594 19.375 -9.570312 C 19.375 -13.480469 17 -17.78125 10.300781 -17.78125 C 3.570312 -17.78125 1.171875 -13.480469 1.171875 -8.761719 Z M 5.320312 -8.890625 C 5.320312 -12.515625 6.414062 -14.550781 10.300781 -14.550781 C 14.183594 -14.550781 15.28125 -12.515625 15.28125 -8.890625 C 15.28125 -5.320312 14.183594 -3.234375 10.300781 -3.234375 C 6.414062 -3.234375 5.320312 -5.320312 5.320312 -8.890625 Z M 5.320312 -8.890625 "/></g></g></g><g fill="#205eff" fill-opacity="1"><g transform="translate(169.324082, 305.13527)"><g><path d="M 1.433594 -6.492188 C 1.433594 -1.957031 4.042969 0.417969 9.230469 0.417969 C 14.417969 0.417969 17 -1.980469 17 -6.492188 L 17 -17.339844 L 13.0625 -17.339844 L 13.0625 -7.039062 C 13.0625 -3.675781 11.785156 -2.816406 9.230469 -2.816406 C 6.675781 -2.816406 5.398438 -3.675781 5.398438 -7.039062 L 5.398438 -17.339844 L 1.433594 -17.339844 Z M 1.433594 -6.492188 "/></g></g></g><g fill="#205eff" fill-opacity="1"><g transform="translate(188.766009, 305.13527)"><g><path d="M 11.890625 -14.210938 L 11.890625 -17.339844 L 1.511719 -17.339844 L 1.511719 -14.210938 L 4.71875 -14.210938 L 4.71875 -3.15625 L 1.511719 -3.15625 L 1.511719 0 L 11.890625 0 L 11.890625 -3.15625 L 8.683594 -3.15625 L 8.683594 -14.210938 Z M 11.890625 -14.210938 "/></g></g></g><g fill="#205eff" fill-opacity="1"><g transform="translate(203.178282, 305.13527)"><g><path d="M 16.246094 -17.339844 L 0.859375 -17.339844 L 0.859375 -14.210938 L 6.570312 -14.210938 L 6.570312 0 L 10.535156 0 L 10.535156 -14.210938 L 16.246094 -14.210938 Z M 16.246094 -17.339844 "/></g></g></g><g fill="#205eff" fill-opacity="1"><g transform="translate(221.291127, 305.13527)"><g><path d="M 13.21875 -17.339844 L 10.351562 -11.316406 C 9.910156 -10.351562 9.492188 -9.414062 9.074219 -8.449219 C 8.707031 -9.414062 8.292969 -10.351562 7.875 -11.316406 L 5.03125 -17.339844 L 0.601562 -17.339844 L 7.144531 -5.242188 L 7.144531 0 L 11.109375 0 L 11.109375 -5.242188 L 17.625 -17.339844 Z M 13.21875 -17.339844 "/></g></g></g><g fill="#205eff" fill-opacity="1"><g transform="translate(240.4985, 305.13527)"><g/></g></g><g fill="#205eff" fill-opacity="1"><g transform="translate(248.109011, 305.13527)"><g><path d="M 15.046875 -14.210938 L 15.046875 -17.339844 L 1.511719 -17.339844 L 1.511719 0 L 5.476562 0 L 5.476562 -7.066406 L 14.160156 -7.066406 L 14.160156 -10.011719 L 5.476562 -10.011719 L 5.476562 -14.210938 Z M 15.046875 -14.210938 "/></g></g></g><g fill="#205eff" fill-opacity="1"><g transform="translate(265.257616, 305.13527)"><g><path d="M 10.324219 0.441406 C 16.972656 0.441406 19.453125 -3.886719 19.453125 -8.65625 C 19.453125 -13.351562 16.972656 -17.78125 10.324219 -17.78125 C 3.675781 -17.78125 1.171875 -13.375 1.171875 -8.65625 C 1.171875 -3.859375 3.675781 0.441406 10.324219 0.441406 Z M 5.320312 -8.65625 C 5.320312 -12.488281 6.519531 -14.550781 10.324219 -14.550781 C 14.132812 -14.550781 15.332031 -12.488281 15.332031 -8.65625 C 15.332031 -4.875 14.132812 -2.816406 10.324219 -2.816406 C 6.519531 -2.816406 5.320312 -4.875 5.320312 -8.65625 Z M 5.320312 -8.65625 "/></g></g></g><g fill="#205eff" fill-opacity="1"><g transform="translate(286.888618, 305.13527)"><g><path d="M 15.929688 -4.222656 C 15.929688 -6.726562 14.550781 -7.613281 12.777344 -8.058594 C 14.835938 -8.5 16.402344 -10.144531 16.402344 -12.59375 C 16.402344 -15.410156 14.496094 -17.339844 10.664062 -17.339844 L 1.511719 -17.339844 L 1.511719 0 L 5.5 0 L 5.5 -6.699219 L 9.074219 -6.699219 C 10.792969 -6.699219 11.96875 -5.867188 11.96875 -3.910156 L 11.96875 -3 C 11.96875 -1.566406 12.097656 -0.625 12.308594 0 L 16.269531 0 C 16.089844 -0.835938 15.929688 -1.617188 15.929688 -3.050781 Z M 9.777344 -9.542969 L 5.5 -9.542969 L 5.5 -14.261719 L 9.777344 -14.261719 C 11.5 -14.261719 12.253906 -13.480469 12.253906 -12.019531 C 12.253906 -10.402344 11.578125 -9.542969 9.777344 -9.542969 Z M 9.777344 -9.542969 "/></g></g></g><g fill="#205eff" fill-opacity="1"><g transform="translate(305.496613, 305.13527)"><g/></g></g><g fill="#205eff" fill-opacity="1"><g transform="translate(313.10714, 305.13527)"><g><path d="M 15.046875 0 L 19.035156 0 L 12.933594 -17.339844 L 6.882812 -17.339844 L 0.78125 0 L 4.773438 0 L 6.023438 -3.546875 L 13.792969 -3.546875 Z M 7.09375 -6.597656 L 9.910156 -14.601562 L 12.722656 -6.597656 Z M 7.09375 -6.597656 "/></g></g></g><g fill="#205eff" fill-opacity="1"><g transform="translate(333.90421, 305.13527)"><g><path d="M 5.5 -3.15625 L 5.5 -17.339844 L 1.511719 -17.339844 L 1.511719 0 L 13.609375 0 L 13.609375 -3.15625 Z M 5.5 -3.15625 "/></g></g></g><g fill="#205eff" fill-opacity="1"><g transform="translate(349.020125, 305.13527)"><g><path d="M 5.5 -3.15625 L 5.5 -17.339844 L 1.511719 -17.339844 L 1.511719 0 L 13.609375 0 L 13.609375 -3.15625 Z M 5.5 -3.15625 "/></g></g></g></svg>