<svg xmlns="http://www.w3.org/2000/svg" xmlns:xlink="http://www.w3.org/1999/xlink" width="500" zoomAndPan="magnify" viewBox="0 0 375 374.999991" height="500" preserveAspectRatio="xMidYMid meet" version="1.0"><defs><g/><clipPath id="97f6c3c300"><path d="M 65.550781 34.015625 L 227 34.015625 L 227 272 L 65.550781 272 Z M 65.550781 34.015625 " clip-rule="nonzero"/></clipPath><clipPath id="53832af11c"><path d="M 148 36 L 309.300781 36 L 309.300781 273.265625 L 148 273.265625 Z M 148 36 " clip-rule="nonzero"/></clipPath></defs><g clip-path="url(#97f6c3c300)"><path fill="#293041" d="M 65.550781 112.742188 L 65.550781 271.085938 L 149.148438 271.085938 L 226.699219 191.914062 L 146.125 191.914062 L 146.125 34.113281 Z M 65.550781 112.742188 " fill-opacity="1" fill-rule="nonzero"/></g><g clip-path="url(#53832af11c)"><path fill="#205eff" d="M 309.300781 194.546875 L 309.300781 36.195312 L 225.703125 36.195312 L 148.152344 115.367188 L 228.726562 115.367188 L 228.726562 273.164062 Z M 309.300781 194.546875 " fill-opacity="1" fill-rule="nonzero"/></g><g fill="#293041" fill-opacity="1"><g transform="translate(62.886936, 324.488626)"><g><path d="M 17.238281 0.796875 C 24.8125 0.796875 27.402344 -2.640625 28.597656 -5.730469 L 28.597656 0 L 36.871094 0 L 36.871094 -18.683594 L 17.789062 -18.683594 L 17.789062 -12.605469 L 27.402344 -12.605469 C 26.90625 -9.316406 25.160156 -6.824219 19.78125 -6.824219 C 14.648438 -6.824219 12.15625 -10.015625 12.15625 -16.492188 C 12.15625 -23.617188 15.296875 -26.308594 20.527344 -26.308594 C 24.515625 -26.308594 26.707031 -24.414062 26.957031 -22.371094 L 36.921875 -22.371094 C 36.621094 -28.351562 32.285156 -33.929688 20.378906 -33.929688 C 7.125 -33.929688 1.742188 -26.058594 1.742188 -16.542969 C 1.742188 -7.226562 6.527344 0.796875 17.238281 0.796875 Z M 17.238281 0.796875 "/></g></g></g><g fill="#293041" fill-opacity="1"><g transform="translate(102.547159, 324.488626)"><g><path d="M 19.878906 0.796875 C 33.433594 0.796875 38.015625 -7.972656 38.015625 -16.492188 C 38.015625 -24.863281 33.433594 -33.929688 19.878906 -33.929688 C 6.378906 -33.929688 1.742188 -24.914062 1.742188 -16.492188 C 1.742188 -7.921875 6.378906 0.796875 19.878906 0.796875 Z M 12.15625 -16.492188 C 12.15625 -22.371094 13.453125 -25.808594 19.878906 -25.808594 C 26.355469 -25.808594 27.601562 -22.371094 27.601562 -16.492188 C 27.601562 -10.761719 26.355469 -7.324219 19.878906 -7.324219 C 13.453125 -7.324219 12.15625 -10.761719 12.15625 -16.492188 Z M 12.15625 -16.492188 "/></g></g></g><g fill="#293041" fill-opacity="1"><g transform="translate(142.30703, 324.488626)"><g><path d="M 27.054688 -33.132812 L 20.777344 -13.152344 C 20.230469 -11.507812 19.832031 -9.867188 19.433594 -8.222656 C 18.984375 -9.867188 18.585938 -11.507812 18.035156 -13.152344 L 11.757812 -33.132812 L 1.496094 -33.132812 L 11.90625 0 L 26.65625 0 L 37.070312 -33.132812 Z M 27.054688 -33.132812 "/></g></g></g><g fill="#293041" fill-opacity="1"><g transform="translate(180.871117, 324.488626)"><g><path d="M 28.648438 0 L 38.664062 0 L 27.652344 -33.132812 L 12.257812 -33.132812 L 1.246094 0 L 11.261719 0 L 13.152344 -5.679688 L 26.757812 -5.679688 Z M 15.644531 -13.152344 L 19.929688 -26.109375 L 24.265625 -13.152344 Z M 15.644531 -13.152344 "/></g></g></g><g fill="#293041" fill-opacity="1"><g transform="translate(220.780473, 324.488626)"><g><path d="M 2.492188 0 L 25.910156 0 L 25.910156 -7.722656 L 19.730469 -7.722656 L 19.730469 -25.011719 C 19.730469 -29.695312 17.039062 -33.132812 10.113281 -33.132812 L 3.386719 -33.132812 L 3.386719 -25.410156 L 9.765625 -25.410156 L 9.765625 -7.722656 L 2.492188 -7.722656 Z M 2.492188 0 "/></g></g></g><g fill="#293041" fill-opacity="1"><g transform="translate(248.084252, 324.488626)"><g><path d="M 2.492188 0 L 25.910156 0 L 25.910156 -7.722656 L 19.730469 -7.722656 L 19.730469 -25.011719 C 19.730469 -29.695312 17.039062 -33.132812 10.113281 -33.132812 L 3.386719 -33.132812 L 3.386719 -25.410156 L 9.765625 -25.410156 L 9.765625 -7.722656 L 2.492188 -7.722656 Z M 2.492188 0 "/></g></g></g><g fill="#293041" fill-opacity="1"><g transform="translate(275.388032, 324.488626)"><g><path d="M 24.664062 -33.132812 L 20.429688 -22.917969 C 19.632812 -21.027344 18.933594 -19.132812 18.285156 -17.238281 C 17.6875 -19.132812 16.992188 -21.027344 16.242188 -22.917969 L 12.15625 -33.132812 L 0.996094 -33.132812 L 13.402344 -9.066406 L 13.402344 0 L 23.417969 0 L 23.417969 -9.066406 L 35.722656 -33.132812 Z M 24.664062 -33.132812 "/></g></g></g></svg>